<?xml version="1.0" standalone="no"?><!DOCTYPE svg PUBLIC "-//W3C//DTD SVG 1.1//EN" "http://www.w3.org/Graphics/SVG/1.1/DTD/svg11.dtd"><svg t="1498661397675" class="icon" style="" viewBox="0 0 1024 1024" version="1.1" xmlns="http://www.w3.org/2000/svg" p-id="6491" xmlns:xlink="http://www.w3.org/1999/xlink" width="200" height="200"><defs><style type="text/css"></style></defs><path d="M841.58 631.749a48.76 48.76 0 0 1-34.755 14.556 48.76 48.76 0 0 1-34.755-14.556L603.643 460.678c-18.896-19.188-18.652-50.055 0.536-68.962 19.188-18.896 50.055-18.652 68.962 0.549l94.148 95.611c-12.215-176.983-157.478-317.212-334.413-317.212C247.969 170.662 97.525 323.789 97.525 512c0 188.223 150.444 341.337 335.352 341.337 68.06 0 133.56-20.602 189.394-59.6 22.089-15.409 52.493-10.008 67.902 12.069 15.421 22.077 10.009 52.481-12.069 67.902-72.29 50.469-157.088 77.154-245.226 77.154C194.197 950.862 0 753.996 0 512 0 270.016 194.197 73.138 432.877 73.138c224.783 0 410.031 174.631 430.853 397.097l76.776-77.971c18.908-19.2 49.786-19.432 68.962-0.549 19.188 18.908 19.432 49.774 0.537 68.962L841.58 631.749z" p-id="6492"></path></svg>