<?xml version="1.0" standalone="no"?><!DOCTYPE svg PUBLIC "-//W3C//DTD SVG 1.1//EN" "http://www.w3.org/Graphics/SVG/1.1/DTD/svg11.dtd"><svg t="1498121935501" class="icon" style="" viewBox="0 0 1024 1024" version="1.1" xmlns="http://www.w3.org/2000/svg" p-id="3615" xmlns:xlink="http://www.w3.org/1999/xlink" width="200" height="200"><defs><style type="text/css"></style></defs><path d="M495.0016 0h33.792a15.36 15.36 0 0 0 3.5328 1.1264c11.6736 0.8192 23.4496 0.8704 35.0208 2.5088 21.0944 2.9696 42.1888 6.0416 62.976 10.5472a432.1792 432.1792 0 0 1 95.5904 32.6656c19.0464 9.1136 37.5296 19.456 55.7056 30.1568a453.7344 453.7344 0 0 1 80.0256 60.8768 518.912 518.912 0 0 1 105.0112 138.24 482.8672 482.8672 0 0 1 35.072 86.528 424.96 424.96 0 0 1 16.128 73.2672c2.2016 19.5584 4.8128 39.168 5.632 58.8288a433.4592 433.4592 0 0 1-4.5056 87.04c-2.6112 16.128-5.12 32.3072-8.704 48.2304a517.7856 517.7856 0 0 1-70.5536 163.84 463.0016 463.0016 0 0 1-75.9808 90.0096q-17.152 15.36-34.7648 30.1056a423.0144 423.0144 0 0 1-73.0624 48.5376 515.84 515.84 0 0 1-103.2192 41.984 527.0016 527.0016 0 0 1-114.688 19.0464 530.7904 530.7904 0 0 1-57.3952-1.0752 369.664 369.664 0 0 1-46.08-4.7104c-22.9376-4.1472-46.08-8.8064-68.2496-15.0016a475.136 475.136 0 0 1-117.1456-51.2 508.5184 508.5184 0 0 1-83.3536-62.0544 466.176 466.176 0 0 1-35.84-37.12 583.68 583.68 0 0 1-38.656-48.2816 485.12 485.12 0 0 1-48.9984-88.1664 503.6544 503.6544 0 0 1-33.1776-109.1072 449.8944 449.8944 0 0 1-7.9872-71.0144 12.9536 12.9536 0 0 0-1.1264-3.5328v-39.5776a7.9872 7.9872 0 0 0 1.1264-2.3552c1.9968-20.1728 2.816-40.6528 6.144-60.4672a633.0368 633.0368 0 0 1 14.8992-65.9968 477.4912 477.4912 0 0 1 51.2-115.9168 525.1584 525.1584 0 0 1 68.608-90.112c8.448-9.0112 17.5104-17.4592 26.7776-25.6a481.8944 481.8944 0 0 1 37.0688-30.72c16.4864-11.8272 33.8432-22.4768 51.2-33.1264a433.6128 433.6128 0 0 1 81.92-38.2464A415.1296 415.1296 0 0 1 424.192 8.192C445.44 5.3248 467.0976 3.4816 488.5504 1.1776c2.1504-0.256 4.3008-0.768 6.4512-1.1776z m218.2144 355.6864h2.2016c-1.4848-16.1792-2.1504-32.4608-4.608-48.4864a140.6464 140.6464 0 0 0-34.5088-71.68 160.3072 160.3072 0 0 0-57.088-41.8304 264.8576 264.8576 0 0 0-96.9728-20.48c-11.9296-0.512-23.9104 0.6656-35.84 0.9728a232.0896 232.0896 0 0 0-56.32 8.9088 163.84 163.84 0 0 0-81.92 49.408 157.5936 157.5936 0 0 0-28.672 48.2304c-8.4992 22.016-8.96 45.1584-9.728 68.096-0.5632 15.6672 1.0752 31.4368 2.048 47.1552 0.8704 13.2096 1.4336 26.5216 3.5328 39.5264 3.4816 21.9136 7.7312 43.6736 12.1856 65.4336a469.76 469.76 0 0 0 40.6528 120.32 177.6128 177.6128 0 0 0 47.5648 57.088 174.08 174.08 0 0 0 63.4368 32.6144 108.288 108.288 0 0 0 47.616 4.1984 173.6192 173.6192 0 0 0 57.344-20.48 191.0784 191.0784 0 0 0 62.5152-57.856 252.2112 252.2112 0 0 0 29.184-61.696 600.7808 600.7808 0 0 0 28.2624-112.64c3.2256-22.5792 6.5536-45.2096 8.7552-67.8912 1.3312-12.8512 0.3584-25.9072 0.3584-38.912z m-325.376 328.704v26.0096a40.192 40.192 0 0 1-6.8608 22.5792 67.1744 67.1744 0 0 1-38.5024 26.3168c-27.4432 8.0896-55.0912 15.36-82.7392 22.7328-31.8464 8.4992-63.744 16.7936-95.6416 25.1904-11.1104 2.9184-22.1696 5.9904-34.816 9.4208 116.48 135.7824 262.3488 198.8096 439.808 179.8656 132.1984-14.1312 239.5136-76.8 324.7616-179.5072l-55.5008-14.0288c-42.0864-10.6496-84.1728-21.1456-126.208-32-19.2512-5.12-38.912-8.96-56.576-18.6368s-30.2592-24.4224-28.9792-46.7968v-8.3456l-1.6384-0.768a74.8032 74.8032 0 0 1-4.7104 5.8368 187.648 187.648 0 0 1-63.4368 43.1616 111.3088 111.3088 0 0 1-78.7456 3.84 186.7776 186.7776 0 0 1-70.912-43.5712c-6.656-6.1952-12.288-13.4656-19.3024-21.2992z" fill="#bfbfbf" p-id="3616"></path></svg>